<?xml version="1.0" standalone="no"?>
<!DOCTYPE svg PUBLIC "-//W3C//DTD SVG 20010904//EN"
 "http://www.w3.org/TR/2001/REC-SVG-20010904/DTD/svg10.dtd">
<svg version="1.0" xmlns="http://www.w3.org/2000/svg"
 width="48.000000pt" height="48.000000pt" viewBox="0 0 48.000000 48.000000"
 preserveAspectRatio="xMidYMid meet">

<g transform="translate(0.000000,48.000000) scale(0.100000,-0.100000)"
fill="#000000" stroke="none">
<path d="M0 420 l0 -60 68 0 c54 0 73 -4 90 -20 12 -11 24 -20 27 -20 3 0 5 9
5 20 0 11 7 20 15 20 12 0 15 13 15 60 l0 60 -110 0 -110 0 0 -60z m61 -5 c-1
-15 -24 -12 -29 3 -3 9 2 13 12 10 10 -1 17 -7 17 -13z m69 6 c0 -14 -18 -23
-30 -16 -6 4 -8 11 -5 16 8 12 35 12 35 0z m60 -6 c0 -8 -7 -15 -15 -15 -8 0
-15 7 -15 15 0 8 7 15 15 15 8 0 15 -7 15 -15z"/>
<path d="M326 418 c-13 -19 -14 -25 -2 -43 7 -11 24 -20 36 -20 12 0 29 9 36
20 12 18 11 24 -2 43 -8 12 -24 22 -34 22 -10 0 -26 -10 -34 -22z"/>
<path d="M303 300 c-33 -20 -53 -48 -53 -74 0 -14 17 -16 110 -16 99 0 110 2
110 18 0 41 -62 92 -112 92 -13 0 -37 -9 -55 -20z"/>
<path d="M30 141 c0 -26 17 -36 35 -21 18 15 8 40 -16 40 -12 0 -19 -7 -19
-19z"/>
<path d="M155 150 c-9 -15 14 -40 31 -33 22 8 18 43 -5 43 -11 0 -23 -5 -26
-10z"/>
<path d="M280 141 c0 -24 25 -34 40 -16 15 18 5 35 -21 35 -12 0 -19 -7 -19
-19z"/>
<path d="M407 146 c-7 -17 18 -40 33 -31 5 3 10 15 10 26 0 23 -35 27 -43 5z"/>
<path d="M7 74 c-4 -4 -7 -22 -7 -41 l0 -33 51 0 50 0 -3 38 c-3 36 -5 37 -43
40 -23 2 -44 0 -48 -4z"/>
<path d="M137 73 c-4 -3 -7 -21 -7 -40 0 -33 1 -33 45 -33 l45 0 0 40 c0 40 0
40 -38 40 -21 0 -42 -3 -45 -7z"/>
<path d="M260 41 l0 -41 46 0 45 0 -3 38 c-3 36 -4 37 -45 40 l-43 3 0 -40z"/>
<path d="M387 74 c-4 -4 -7 -22 -7 -41 l0 -33 51 0 50 0 -3 38 c-3 36 -5 37
-43 40 -23 2 -44 0 -48 -4z"/>
</g>
</svg>
