<?xml version="1.0" standalone="no"?>
<!DOCTYPE svg PUBLIC "-//W3C//DTD SVG 20010904//EN"
 "http://www.w3.org/TR/2001/REC-SVG-20010904/DTD/svg10.dtd">
<svg version="1.0" xmlns="http://www.w3.org/2000/svg"
 width="100.000000pt" height="100.000000pt" viewBox="0 0 100.000000 100.000000"
 preserveAspectRatio="xMidYMid meet">

<g transform="translate(0.000000,100.000000) scale(0.100000,-0.100000)"
fill="#000000" stroke="none">
<path d="M253 767 c-155 -121 -229 -185 -223 -191 7 -7 17 -6 30 2 20 12 20 9
20 -251 0 -191 3 -266 12 -275 9 -9 89 -12 299 -12 274 0 287 1 292 19 3 13
-9 32 -39 62 l-44 43 0 -42 0 -42 -100 0 -100 0 0 170 0 170 100 0 c82 0 100
-3 100 -15 0 -8 1 -15 3 -15 1 0 24 7 51 15 62 19 169 19 221 0 22 -8 41 -15
43 -15 1 0 2 46 2 102 0 79 3 99 12 90 7 -7 18 -12 25 -12 29 0 8 28 -62 83
l-75 59 0 74 0 74 -59 0 c-57 0 -60 -1 -63 -26 -3 -25 -5 -24 -95 45 -50 39
-97 71 -105 71 -7 -1 -118 -83 -245 -183z"/>
<path d="M703 370 c-42 -9 -102 -36 -138 -64 -16 -12 -17 -17 -8 -27 10 -10
16 -9 30 3 84 73 225 81 326 18 54 -34 80 -31 47 5 -47 50 -171 81 -257 65z"/>
<path d="M714 271 c-35 -9 -94 -42 -94 -53 0 -17 20 -16 56 2 51 26 128 26
177 0 44 -24 67 -17 41 11 -17 19 -103 50 -133 48 -9 -1 -30 -4 -47 -8z"/>
<path d="M721 167 c-13 -6 -23 -16 -22 -21 1 -11 131 -15 137 -4 6 9 -56 38
-78 38 -7 0 -24 -6 -37 -13z"/>
<path d="M742 68 c-30 -30 3 -77 40 -57 24 13 23 46 -1 59 -24 13 -24 13 -39
-2z"/>
</g>
</svg>
