<?xml version="1.0" standalone="no"?>
<!DOCTYPE svg PUBLIC "-//W3C//DTD SVG 20010904//EN"
 "http://www.w3.org/TR/2001/REC-SVG-20010904/DTD/svg10.dtd">
<svg version="1.0" xmlns="http://www.w3.org/2000/svg"
 width="500.000000pt" height="500.000000pt" viewBox="0 0 500.000000 500.000000"
 preserveAspectRatio="xMidYMid meet">

<g transform="translate(0.000000,500.000000) scale(0.100000,-0.100000)"
fill="#000000" stroke="none">
<path d="M2455 4878 c-11 -7 -60 -43 -110 -82 -49 -38 -232 -181 -405 -316
-173 -135 -358 -279 -410 -320 -91 -71 -504 -393 -935 -730 -110 -86 -260
-203 -334 -260 -152 -119 -171 -146 -146 -205 10 -25 25 -40 50 -50 45 -19 73
-8 165 64 l65 51 5 -1328 c4 -1079 7 -1331 18 -1350 30 -52 27 -52 782 -52
l700 0 0 900 0 900 600 0 600 0 0 -900 0 -900 700 0 c755 0 752 0 782 52 11
19 14 271 18 1350 l5 1328 65 -51 c92 -72 120 -83 165 -64 49 20 71 71 52 118
-11 26 -263 227 -1168 933 -635 495 -1164 906 -1176 912 -27 15 -62 15 -88 0z"/>
<path d="M3502 4448 l3 -52 293 -228 c160 -125 294 -228 297 -228 3 0 5 126 5
280 l0 280 -301 0 -300 0 3 -52z"/>
</g>
</svg>
