<?xml version="1.0" standalone="no"?>
<!DOCTYPE svg PUBLIC "-//W3C//DTD SVG 20010904//EN"
 "http://www.w3.org/TR/2001/REC-SVG-20010904/DTD/svg10.dtd">
<svg version="1.0" xmlns="http://www.w3.org/2000/svg"
 width="60.000000pt" height="60.000000pt" viewBox="0 0 60.000000 60.000000"
 preserveAspectRatio="xMidYMid meet">

<g transform="translate(0.000000,60.000000) scale(0.100000,-0.100000)"
fill="#000000" stroke="none">
<path d="M282 528 c-16 -16 -15 -43 2 -57 11 -9 18 -8 30 4 9 9 16 22 16 29 0
12 -19 36 -30 36 -3 0 -11 -5 -18 -12z"/>
<path d="M261 422 c-39 -12 -68 -121 -40 -149 16 -16 2 -33 -26 -33 -21 0 -24
6 -30 53 -9 74 -14 79 -70 75 -54 -3 -56 -5 -69 -105 l-7 -53 95 0 95 0 17
-56 c8 -30 13 -62 10 -70 -4 -10 -1 -14 6 -12 8 3 14 29 16 71 l3 67 39 0 40
0 0 -70 c0 -55 3 -70 15 -70 8 0 12 6 9 14 -3 8 2 40 10 70 l17 56 95 0 95 0
-7 52 c-14 103 -14 103 -75 103 l-54 0 -8 -62 c-8 -57 -11 -63 -32 -63 -30 0
-39 14 -24 39 10 15 10 31 0 75 -7 31 -15 58 -19 60 -16 9 -79 14 -101 8z"/>
<path d="M60 130 c0 -65 17 -65 22 0 2 35 -1 50 -9 50 -9 0 -13 -17 -13 -50z"/>
<path d="M518 130 c5 -65 22 -65 22 0 0 33 -4 50 -12 50 -9 0 -12 -15 -10 -50z"/>
</g>
</svg>
