<?xml version="1.0" standalone="no"?>
<!DOCTYPE svg PUBLIC "-//W3C//DTD SVG 20010904//EN"
 "http://www.w3.org/TR/2001/REC-SVG-20010904/DTD/svg10.dtd">
<svg version="1.0" xmlns="http://www.w3.org/2000/svg"
 width="48.000000pt" height="48.000000pt" viewBox="0 0 48.000000 48.000000"
 preserveAspectRatio="xMidYMid meet">

<g transform="translate(0.000000,48.000000) scale(0.100000,-0.100000)"
fill="#000000" stroke="none">
<path d="M284 460 c-12 -5 -25 -14 -30 -21 -5 -9 -2 -10 12 -3 24 11 113 11
137 0 10 -5 17 -4 17 1 0 27 -91 42 -136 23z"/>
<path d="M72 448 c-27 -27 -6 -68 35 -68 29 0 48 33 33 60 -12 22 -49 27 -68
8z"/>
<path d="M292 398 c-8 -10 2 -13 44 -13 54 0 68 7 38 19 -26 10 -71 7 -82 -6z"/>
<path d="M445 388 c-3 -7 -11 -31 -18 -53 -14 -40 -14 -40 -71 -43 -79 -4 -71
-27 10 -27 l59 0 22 45 c11 25 23 54 25 64 4 22 -20 34 -27 14z"/>
<path d="M322 343 c2 -10 10 -18 18 -18 22 0 18 29 -3 33 -14 3 -18 -1 -15
-15z"/>
<path d="M91 331 c-10 -6 -12 -31 -10 -100 5 -120 -14 -124 -31 -7 -14 90 -22
112 -37 103 -6 -4 -4 -40 5 -94 11 -69 12 -100 3 -144 -13 -68 -14 -79 -1 -79
5 0 17 25 26 55 l16 56 66 -3 67 -3 25 -49 c14 -27 31 -51 38 -54 22 -7 25 28
6 70 -31 70 -51 88 -95 88 -38 0 -39 1 -39 36 0 34 1 35 22 20 12 -9 42 -16
66 -16 39 0 43 2 40 23 -2 17 -11 23 -38 25 -25 2 -47 15 -75 42 -27 27 -44
37 -54 31z"/>
<path d="M290 215 c0 -8 9 -15 20 -15 19 0 20 -7 20 -96 0 -72 3 -95 13 -92 8
3 13 34 15 96 l3 92 54 0 c42 0 55 3 55 15 0 12 -17 15 -90 15 -73 0 -90 -3
-90 -15z"/>
</g>
</svg>
