<?xml version="1.0" standalone="no"?>
<!DOCTYPE svg PUBLIC "-//W3C//DTD SVG 20010904//EN"
 "http://www.w3.org/TR/2001/REC-SVG-20010904/DTD/svg10.dtd">
<svg version="1.0" xmlns="http://www.w3.org/2000/svg"
 width="53.000000pt" height="53.000000pt" viewBox="0 0 53.000000 53.000000"
 preserveAspectRatio="xMidYMid meet">

<g transform="translate(0.000000,53.000000) scale(0.100000,-0.100000)"
fill="#000000" stroke="none">
<path d="M7 523 c-4 -3 -7 -37 -7 -75 l0 -68 130 0 130 0 0 75 0 75 -123 0
c-68 0 -127 -3 -130 -7z"/>
<path d="M330 276 c0 -91 -1 -96 -22 -100 -13 -3 -32 -7 -43 -10 -11 -2 34 -3
100 -3 l120 2 0 100 0 100 -77 3 -78 3 0 -95z"/>
<path d="M68 343 c34 -2 90 -2 125 0 34 2 6 3 -63 3 -69 0 -97 -1 -62 -3z"/>
<path d="M110 305 c0 -9 9 -15 25 -15 18 0 23 4 19 15 -8 20 -44 20 -44 0z"/>
<path d="M73 253 c42 -2 112 -2 155 0 42 1 7 3 -78 3 -85 0 -120 -2 -77 -3z"/>
<path d="M4 110 c0 -63 1 -89 3 -57 2 31 2 83 0 115 -2 31 -3 5 -3 -58z"/>
<path d="M524 110 c0 -63 1 -89 3 -57 2 31 2 83 0 115 -2 31 -3 5 -3 -58z"/>
<path d="M392 89 c-2 -46 -2 -46 -42 -53 -38 -6 -57 -26 -25 -26 8 0 15 5 15
10 0 6 27 10 60 10 33 0 60 -4 60 -10 0 -5 7 -10 15 -10 32 0 13 19 -27 27
-42 8 -43 10 -49 53 l-6 45 -1 -46z"/>
<path d="M84 79 c3 -17 6 -42 6 -55 0 -21 5 -24 35 -24 l35 0 0 55 0 55 -41 0
c-41 0 -41 0 -35 -31z"/>
</g>
</svg>
