<svg class="svg-icon" style="width: 1em; height: 1em;vertical-align: middle;fill: currentColor;overflow: hidden;" viewBox="0 0 1024 1024" version="1.1" xmlns="http://www.w3.org/2000/svg"><path d="M909.986274 831.149151l-104.919577-52.432143 27.294735-39.685795a28.036028 28.036028 0 0 0 4.912601-15.830292V640.19761c0-61.384997-49.074824-109.477914-111.716127-109.477915S613.842802 578.812613 613.842802 640.19761v38.430512H396.415633V640.19761c0-61.384997-49.075848-109.477914-111.716127-109.477915s-111.716128 48.092918-111.716128 109.477915v83.002288a27.740125 27.740125 0 0 0 5.185979 16.185579l27.7862 39.112419-109.477914 52.433168a27.976643 27.976643 0 0 0-15.885581 25.220343v52.677876c0 15.448382 12.500616 27.948998 27.950021 27.948998h348.085175c15.448382 0 27.948998-12.500616 27.948997-27.948998v-52.677876c0-10.590046-5.977443-20.280097-15.448381-25.001232l-104.919577-52.432143 27.294735-39.685796a28.159918 28.159918 0 0 0 2.490089-4.504071h222.273217a27.605996 27.605996 0 0 0 2.762443 4.858336l27.7862 39.112419-109.477915 52.433168a27.976643 27.976643 0 0 0-15.885581 25.220343v52.677876c0 15.448382 12.500616 27.948998 27.948998 27.948998h348.085175c15.448382 0 27.948998-12.500616 27.948997-27.948998v-52.677876c0.001024-10.592094-5.977443-20.281121-15.448381-25.00328zM428.677236 873.428448v7.451837h-292.186155v-7.124194l123.561457-59.174428a27.895756 27.895756 0 0 0 14.984562-18.232326 27.785176 27.785176 0 0 0-4.28496-23.172573L228.882397 714.275713v-74.078103c0-30.051034 24.510791-53.578895 55.817109-53.578895s55.817108 23.527861 55.817108 53.578895v74.322812l-40.559169 59.010607a27.935687 27.935687 0 0 0-4.039228 22.818308c2.046747 7.833747 7.342282 14.411186 14.575008 18.014238l118.184011 59.064873z m440.859424 7.450814h-292.186155v-7.124195l123.561457-59.174428a27.895756 27.895756 0 0 0 14.984562-18.232326 27.788248 27.788248 0 0 0-4.28496-23.172573l-41.869743-58.901051V640.19761c0-30.051034 24.510791-53.578895 55.817108-53.578895s55.817108 23.527861 55.817109 53.578895v74.322812l-40.559169 59.010607a27.935687 27.935687 0 0 0-4.039228 22.818308c2.046747 7.833747 7.342282 14.411186 14.575008 18.014238L869.537684 873.428448v7.450814z" fill="#3E3A39" /><path d="M892.027325 85.41149H126.746764c-35.673189 0-63.62321 23.391684-63.62321 53.223607v542.667413c0 29.832947 27.950022 53.223607 63.62321 53.223607v-55.899019c-3.575408 0-6.168909-0.791463-7.724191-1.501016v-534.314557c1.556306-0.709553 4.148783-1.501016 7.724191-1.501016h765.280561c3.575408 0 6.168909 0.791463 7.724191 1.501016v534.314557c-1.555282 0.709553-4.148783 1.501016-7.724191 1.501016v55.899019c35.673189 0 63.62321-23.39066 63.62321-53.223607V138.636121c0-29.832947-27.950022-53.224631-63.62321-53.224631z" fill="#3E3A39" /><path d="M312.758059 460.737133h196.628986c15.448382 0 27.948998-12.500616 27.948997-27.948997s-12.500616-27.948998-27.948997-27.948998H312.758059c-15.448382 0-27.948998 12.500616-27.948998 27.948998s12.500616 27.948998 27.948998 27.948997zM312.758059 315.066921h378.109588c15.448382 0 27.950022-12.500616 27.950021-27.948998s-12.500616-27.948998-27.950021-27.948998H312.758059c-15.448382 0-27.948998 12.500616-27.948998 27.948998s12.500616 27.948998 27.948998 27.948998z" fill="#3E3A39" /></svg>